<mxfile host="app.diagrams.net" agent="Mozilla/5.0 (Macintosh; Intel Mac OS X 10_15_7) AppleWebKit/537.36 (KHTML, like Gecko) Chrome/137.0.0.0 Safari/537.36" version="27.1.4">
  <diagram name="PÃ¡gina-1" id="lDwxG8lOjd509ShpASVE">
    <mxGraphModel dx="1426" dy="790" grid="1" gridSize="10" guides="1" tooltips="1" connect="1" arrows="1" fold="1" page="1" pageScale="1" pageWidth="827" pageHeight="1169" math="0" shadow="0">
      <root>
        <mxCell id="0" />
        <mxCell id="1" parent="0" />
        <mxCell id="mpsNvzFNodD-0X8TIKXP-46" value="" style="edgeStyle=orthogonalEdgeStyle;rounded=0;orthogonalLoop=1;jettySize=auto;html=1;entryX=0.5;entryY=0;entryDx=0;entryDy=0;" parent="1" source="mpsNvzFNodD-0X8TIKXP-2" target="mpsNvzFNodD-0X8TIKXP-10" edge="1">
          <mxGeometry relative="1" as="geometry">
            <mxPoint x="200" y="630" as="targetPoint" />
            <Array as="points">
              <mxPoint x="320" y="550" />
              <mxPoint x="204" y="551" />
            </Array>
          </mxGeometry>
        </mxCell>
        <mxCell id="mpsNvzFNodD-0X8TIKXP-48" value="" style="edgeStyle=orthogonalEdgeStyle;rounded=0;orthogonalLoop=1;jettySize=auto;html=1;entryX=0.5;entryY=0;entryDx=0;entryDy=0;" parent="1" source="mpsNvzFNodD-0X8TIKXP-2" target="mpsNvzFNodD-0X8TIKXP-20" edge="1">
          <mxGeometry relative="1" as="geometry">
            <mxPoint x="544" y="550" as="targetPoint" />
          </mxGeometry>
        </mxCell>
        <mxCell id="mpsNvzFNodD-0X8TIKXP-50" value="" style="edgeStyle=orthogonalEdgeStyle;rounded=0;orthogonalLoop=1;jettySize=auto;html=1;entryX=0.5;entryY=0;entryDx=0;entryDy=0;" parent="1" source="mpsNvzFNodD-0X8TIKXP-2" target="mpsNvzFNodD-0X8TIKXP-13" edge="1">
          <mxGeometry relative="1" as="geometry">
            <mxPoint x="160" y="510.0344827586207" as="targetPoint" />
          </mxGeometry>
        </mxCell>
        <mxCell id="mpsNvzFNodD-0X8TIKXP-55" value="" style="edgeStyle=orthogonalEdgeStyle;rounded=0;orthogonalLoop=1;jettySize=auto;html=1;entryX=0.5;entryY=0;entryDx=0;entryDy=0;" parent="1" source="mpsNvzFNodD-0X8TIKXP-2" target="mpsNvzFNodD-0X8TIKXP-18" edge="1">
          <mxGeometry relative="1" as="geometry">
            <mxPoint x="554" y="510.0344827586207" as="targetPoint" />
          </mxGeometry>
        </mxCell>
        <mxCell id="mpsNvzFNodD-0X8TIKXP-2" value="" style="fontColor=#0066CC;verticalAlign=top;verticalLabelPosition=bottom;labelPosition=center;align=center;html=1;outlineConnect=0;fillColor=#CCCCCC;strokeColor=#6881B3;gradientColor=none;gradientDirection=north;strokeWidth=2;shape=mxgraph.networks.firewall;" parent="1" vertex="1">
          <mxGeometry x="364" y="500" width="100" height="100" as="geometry" />
        </mxCell>
        <mxCell id="mpsNvzFNodD-0X8TIKXP-3" value="" style="shadow=0;dashed=0;html=1;strokeColor=none;fillColor=#4495D1;labelPosition=center;verticalLabelPosition=bottom;verticalAlign=top;align=center;outlineConnect=0;shape=mxgraph.veeam.vm_windows;" parent="1" vertex="1">
          <mxGeometry x="183" y="710" width="57.2" height="55.2" as="geometry" />
        </mxCell>
        <mxCell id="mpsNvzFNodD-0X8TIKXP-4" value="" style="shadow=0;dashed=0;html=1;strokeColor=none;fillColor=#4495D1;labelPosition=center;verticalLabelPosition=bottom;verticalAlign=top;align=center;outlineConnect=0;shape=mxgraph.veeam.vm_windows;" parent="1" vertex="1">
          <mxGeometry x="320.20000000000005" y="710" width="57.2" height="55.2" as="geometry" />
        </mxCell>
        <mxCell id="mpsNvzFNodD-0X8TIKXP-6" value="" style="shadow=0;dashed=0;html=1;strokeColor=none;fillColor=#4495D1;labelPosition=center;verticalLabelPosition=bottom;verticalAlign=top;align=center;outlineConnect=0;shape=mxgraph.veeam.vm_windows;" parent="1" vertex="1">
          <mxGeometry x="457.4" y="710" width="57.2" height="55.2" as="geometry" />
        </mxCell>
        <mxCell id="mpsNvzFNodD-0X8TIKXP-8" value="" style="shadow=0;dashed=0;html=1;strokeColor=none;fillColor=#4495D1;labelPosition=center;verticalLabelPosition=bottom;verticalAlign=top;align=center;outlineConnect=0;shape=mxgraph.veeam.vm_windows;" parent="1" vertex="1">
          <mxGeometry x="594.5999999999999" y="710" width="57.2" height="55.2" as="geometry" />
        </mxCell>
        <mxCell id="mpsNvzFNodD-0X8TIKXP-12" value="" style="edgeStyle=orthogonalEdgeStyle;rounded=0;orthogonalLoop=1;jettySize=auto;html=1;" parent="1" source="mpsNvzFNodD-0X8TIKXP-10" target="mpsNvzFNodD-0X8TIKXP-3" edge="1">
          <mxGeometry relative="1" as="geometry">
            <Array as="points">
              <mxPoint x="204" y="691" />
              <mxPoint x="204" y="691" />
            </Array>
          </mxGeometry>
        </mxCell>
        <mxCell id="mpsNvzFNodD-0X8TIKXP-10" value="SVBD01" style="text;html=1;align=center;verticalAlign=middle;whiteSpace=wrap;rounded=0;" parent="1" vertex="1">
          <mxGeometry x="174" y="640" width="60" height="30" as="geometry" />
        </mxCell>
        <mxCell id="mpsNvzFNodD-0X8TIKXP-15" value="" style="edgeStyle=orthogonalEdgeStyle;rounded=0;orthogonalLoop=1;jettySize=auto;html=1;" parent="1" source="mpsNvzFNodD-0X8TIKXP-13" target="mpsNvzFNodD-0X8TIKXP-4" edge="1">
          <mxGeometry relative="1" as="geometry">
            <Array as="points">
              <mxPoint x="344" y="681" />
              <mxPoint x="344" y="681" />
            </Array>
          </mxGeometry>
        </mxCell>
        <mxCell id="mpsNvzFNodD-0X8TIKXP-13" value="SVAPP01" style="text;html=1;align=center;verticalAlign=middle;whiteSpace=wrap;rounded=0;" parent="1" vertex="1">
          <mxGeometry x="317.40000000000003" y="640" width="60" height="30" as="geometry" />
        </mxCell>
        <mxCell id="mpsNvzFNodD-0X8TIKXP-22" value="" style="edgeStyle=orthogonalEdgeStyle;rounded=0;orthogonalLoop=1;jettySize=auto;html=1;" parent="1" source="mpsNvzFNodD-0X8TIKXP-18" target="mpsNvzFNodD-0X8TIKXP-6" edge="1">
          <mxGeometry relative="1" as="geometry">
            <Array as="points">
              <mxPoint x="485" y="691" />
              <mxPoint x="484" y="691" />
            </Array>
          </mxGeometry>
        </mxCell>
        <mxCell id="mpsNvzFNodD-0X8TIKXP-18" value="SVRDS01" style="text;html=1;align=center;verticalAlign=middle;whiteSpace=wrap;rounded=0;" parent="1" vertex="1">
          <mxGeometry x="454.6" y="640" width="60" height="30" as="geometry" />
        </mxCell>
        <mxCell id="mpsNvzFNodD-0X8TIKXP-23" value="" style="edgeStyle=orthogonalEdgeStyle;rounded=0;orthogonalLoop=1;jettySize=auto;html=1;" parent="1" source="mpsNvzFNodD-0X8TIKXP-20" target="mpsNvzFNodD-0X8TIKXP-8" edge="1">
          <mxGeometry relative="1" as="geometry">
            <Array as="points">
              <mxPoint x="614" y="691" />
              <mxPoint x="614" y="691" />
            </Array>
          </mxGeometry>
        </mxCell>
        <mxCell id="mpsNvzFNodD-0X8TIKXP-20" value="SVRDS02" style="text;html=1;align=center;verticalAlign=middle;whiteSpace=wrap;rounded=0;" parent="1" vertex="1">
          <mxGeometry x="583.9999999999999" y="640" width="60" height="30" as="geometry" />
        </mxCell>
        <mxCell id="mpsNvzFNodD-0X8TIKXP-24" value="16 - vCPUs&lt;div&gt;32 - Men&lt;/div&gt;&lt;div&gt;500 - NVME&lt;/div&gt;" style="text;html=1;align=left;verticalAlign=middle;whiteSpace=wrap;rounded=0;" parent="1" vertex="1">
          <mxGeometry x="174" y="791" width="70" height="50" as="geometry" />
        </mxCell>
        <mxCell id="mpsNvzFNodD-0X8TIKXP-32" value="8 - vCPUs&lt;div&gt;16 - Men&lt;/div&gt;&lt;div&gt;100 - NVME&lt;/div&gt;" style="text;html=1;align=left;verticalAlign=middle;whiteSpace=wrap;rounded=0;" parent="1" vertex="1">
          <mxGeometry x="307.4" y="791" width="70" height="50" as="geometry" />
        </mxCell>
        <mxCell id="mpsNvzFNodD-0X8TIKXP-34" value="16 - vCPUs&lt;div&gt;20 - Men&lt;/div&gt;&lt;div&gt;100 - NVME&lt;/div&gt;" style="text;html=1;align=left;verticalAlign=middle;whiteSpace=wrap;rounded=0;" parent="1" vertex="1">
          <mxGeometry x="451" y="791" width="70" height="50" as="geometry" />
        </mxCell>
        <mxCell id="mpsNvzFNodD-0X8TIKXP-39" value="16 - vCPUs&lt;div&gt;20 - Men&lt;/div&gt;&lt;div&gt;100 - NVME&lt;/div&gt;" style="text;html=1;align=left;verticalAlign=middle;whiteSpace=wrap;rounded=0;" parent="1" vertex="1">
          <mxGeometry x="584" y="791" width="70" height="50" as="geometry" />
        </mxCell>
        <mxCell id="mpsNvzFNodD-0X8TIKXP-56" value="FIREWALL -VLAN" style="text;html=1;align=center;verticalAlign=middle;whiteSpace=wrap;rounded=0;" parent="1" vertex="1">
          <mxGeometry x="361" y="470" width="106" height="30" as="geometry" />
        </mxCell>
      </root>
    </mxGraphModel>
  </diagram>
</mxfile>
